<?xml version="1.0" encoding="UTF-8" standalone="no"?>
<svg
   viewBox="0 0 164.65416 191.99951"
   width="164.65417"
   height="191.99951"
   role="img"
   aria-labelledby="title desc"
   version="1.1"
   id="svg39"
   sodipodi:docname="BatchRegression.svg"
   inkscape:version="1.4.3 (0d15f75, 2025-12-25)"
   inkscape:export-filename="BatchRegression.png"
   inkscape:export-xdpi="400"
   inkscape:export-ydpi="400"
   xmlns:inkscape="http://www.inkscape.org/namespaces/inkscape"
   xmlns:sodipodi="http://sodipodi.sourceforge.net/DTD/sodipodi-0.dtd"
   xmlns="http://www.w3.org/2000/svg"
   xmlns:svg="http://www.w3.org/2000/svg"
   xmlns:rdf="http://www.w3.org/1999/02/22-rdf-syntax-ns#"
   xmlns:cc="http://creativecommons.org/ns#"
   xmlns:dc="http://purl.org/dc/elements/1.1/">
  <sodipodi:namedview
     id="namedview39"
     pagecolor="#ffffff"
     bordercolor="#666666"
     borderopacity="1.0"
     inkscape:showpageshadow="2"
     inkscape:pageopacity="0.0"
     inkscape:pagecheckerboard="0"
     inkscape:deskcolor="#d1d1d1"
     inkscape:zoom="6"
     inkscape:cx="62.833333"
     inkscape:cy="89.166667"
     inkscape:window-width="3008"
     inkscape:window-height="1611"
     inkscape:window-x="1512"
     inkscape:window-y="25"
     inkscape:window-maximized="1"
     inkscape:current-layer="svg39" />
  <title
     id="title">BatchRegression R package logo</title>
  <desc
     id="desc">Hexagonal R package logo for BatchRegression with R mark, batch-separated scatter plot, regression line, confidence band, and batch legend.</desc>
  <defs
     id="defs8">
    <linearGradient
       id="blueGrad"
       x1="0"
       x2="1"
       y1="0"
       y2="0">
      <stop
         offset="0"
         stop-color="#00366f"
         id="stop1" />
      <stop
         offset="0.55"
         stop-color="#1266c3"
         id="stop2" />
      <stop
         offset="1"
         stop-color="#78aef2"
         id="stop3" />
    </linearGradient>
    <linearGradient
       id="textGrad"
       x1="0"
       x2="1"
       y1="0"
       y2="0">
      <stop
         offset="0"
         stop-color="#002d66"
         id="stop4" />
      <stop
         offset="0.48"
         stop-color="#0d5fb8"
         id="stop5" />
      <stop
         offset="1"
         stop-color="#6ea9ef"
         id="stop6" />
    </linearGradient>
    <linearGradient
       id="rGrad"
       x1="0"
       x2="1"
       y1="0"
       y2="1">
      <stop
         offset="0"
         stop-color="#2f80df"
         id="stop7" />
      <stop
         offset="1"
         stop-color="#0050a8"
         id="stop8" />
    </linearGradient>
    <filter
       id="softShadow"
       x="-0.012820513"
       y="-0.010638134"
       width="1.025641"
       height="1.0212764">
      <feDropShadow
         dx="0"
         dy="5"
         stdDeviation="5"
         flood-color="#0d315f"
         flood-opacity="0.16" />
    </filter>
    <style
       id="style8">
      .navy { stroke:#00366f; }
      .plot-axis { stroke:#b7c3d0; stroke-width:3; stroke-linecap:round; opacity:.55; }
      .dash { stroke:#767676; stroke-width:4; stroke-dasharray:16 16; stroke-linecap:round; opacity:.75; }
      .regline { stroke:#0a4f99; stroke-width:6; stroke-linecap:round; }
      .band { fill:#9ec4ef; opacity:.34; }
      .brace { fill:none; stroke:#06498d; stroke-width:4; stroke-linecap:round; stroke-linejoin:round; }
      .legendBorder { fill:none; stroke:#ffffff; stroke-width:4; }
    </style>
    <linearGradient
       id="lineFade"
       x1="0"
       x2="1"
       y1="0"
       y2="0">
      <stop
         offset="0%"
         stop-color="#1f5fd0"
         stop-opacity="0.95"
         id="stop3-5" />
      <stop
         offset="100%"
         stop-color="#8fb8e9"
         stop-opacity="0.35"
         id="stop4-0" />
    </linearGradient>
    <linearGradient
       id="borderGrad"
       x1="110"
       y1="1040"
       x2="1090"
       y2="160"
       gradientUnits="userSpaceOnUse">
      <stop
         offset="0"
         stop-color="#0B3C88"
         id="stop1-3" />
      <stop
         offset="0.55"
         stop-color="#1269C7"
         id="stop2-6" />
      <stop
         offset="1"
         stop-color="#20A6A6"
         id="stop3-55" />
    </linearGradient>
  </defs>
  <!-- R package hex sticker frame -->
  <!-- R logo approximation -->
  <!-- Regression plot -->
  <!-- Package title -->
  <!-- Batch legend / braces -->
  <metadata
     id="metadata43">
    <rdf:RDF>
      <cc:Work
         rdf:about="">
        <dc:title>BatchRegression R package logo</dc:title>
      </cc:Work>
    </rdf:RDF>
  </metadata>
  <path
     d="m 82.327085,1.7132493 c 3.063799,0 5.321335,1.1956629 7.901377,2.7329428 L 158.76081,46.635986 c 2.58005,1.537282 4.19258,4.441035 4.19258,7.686403 v 83.354741 c 0,3.24537 -1.61253,6.14912 -4.19258,7.6864 l -68.532348,42.18979 c -2.580042,1.53729 -4.837578,2.73295 -7.901377,2.73295 -3.0638,0 -5.321336,-1.19566 -7.901377,-2.73295 L 5.8933624,145.36353 C 3.3133111,143.82625 1.7007852,140.9225 1.7007852,137.67713 V 54.322387 c 0,-3.245368 1.6125259,-6.149119 4.1925772,-7.686399 L 74.425708,4.4461921 c 2.580041,-1.5372799 4.837577,-2.7329428 7.901377,-2.7329428 z"
     fill="none"
     stroke="url(#borderGrad)"
     stroke-width="132.611"
     stroke-linejoin="round"
     id="path55"
     style="fill:#ffffff;fill-opacity:1;stroke:#1f5fd0;stroke-width:3.40156;stroke-dasharray:none;stroke-opacity:1" />
  <line
     x1="58.815784"
     y1="114.67614"
     x2="145.28107"
     y2="114.67614"
     class="plot-axis"
     id="line9"
     style="stroke-width:3.40158;stroke-dasharray:none" />
  <line
     x1="58.815784"
     y1="58.646988"
     x2="58.815784"
     y2="114.67614"
     class="plot-axis"
     id="line10"
     style="stroke-width:3.40158;stroke-dasharray:none" />
  <line
     x1="88.250771"
     y1="53.977894"
     x2="88.250771"
     y2="113.74232"
     class="dash"
     id="line11"
     style="stroke-width:3.40158;stroke-dasharray:none" />
  <line
     x1="118.60561"
     y1="53.977894"
     x2="118.60561"
     y2="113.74232"
     class="dash"
     id="line12"
     style="stroke-width:3.40158;stroke-dasharray:none" />
  <polygon
     points="0,320 0,250 470,65 470,170 "
     class="band"
     id="polygon12"
     style="stroke-width:18.3511;stroke-dasharray:none"
     transform="matrix(0.18396868,0,0,0.18676384,58.815784,53.977893)" />
  <line
     x1="58.815784"
     y1="107.39235"
     x2="145.28107"
     y2="74.895447"
     class="regline"
     id="line13"
     style="stroke-width:3.40158;stroke-dasharray:none" />
  <g
     fill="#00366f"
     id="g19"
     style="stroke-width:18.3511;stroke-dasharray:none"
     transform="matrix(0.18396868,0,0,0.18676384,58.815784,53.977893)">
    <circle
       cx="58"
       cy="165"
       r="12"
       id="circle13"
       style="stroke-width:18.3511;stroke-dasharray:none" />
    <circle
       cx="60"
       cy="200"
       r="12"
       id="circle14"
       style="stroke-width:18.3511;stroke-dasharray:none" />
    <circle
       cx="60"
       cy="228"
       r="12"
       id="circle15"
       style="stroke-width:18.3511;stroke-dasharray:none" />
    <circle
       cx="80"
       cy="225"
       r="12"
       id="circle16"
       style="stroke-width:18.3511;stroke-dasharray:none" />
    <circle
       cx="90"
       cy="255"
       r="12"
       id="circle17"
       style="stroke-width:18.3511;stroke-dasharray:none" />
    <circle
       cx="57"
       cy="286"
       r="12"
       id="circle18"
       style="stroke-width:18.3511;stroke-dasharray:none" />
    <circle
       cx="83"
       cy="278"
       r="12"
       id="circle19"
       style="stroke-width:18.3511;stroke-dasharray:none" />
  </g>
  <g
     fill="#1266c3"
     id="g26"
     style="stroke-width:18.3511;stroke-dasharray:none"
     transform="matrix(0.18396868,0,0,0.18676384,58.815784,53.977893)">
    <circle
       cx="236"
       cy="110"
       r="12"
       id="circle20"
       style="stroke-width:18.3511;stroke-dasharray:none" />
    <circle
       cx="220"
       cy="152"
       r="12"
       id="circle21"
       style="stroke-width:18.3511;stroke-dasharray:none" />
    <circle
       cx="238"
       cy="188"
       r="12"
       id="circle22"
       style="stroke-width:18.3511;stroke-dasharray:none" />
    <circle
       cx="246"
       cy="226"
       r="12"
       id="circle23"
       style="stroke-width:18.3511;stroke-dasharray:none" />
    <circle
       cx="220"
       cy="240"
       r="12"
       id="circle24"
       style="stroke-width:18.3511;stroke-dasharray:none" />
    <circle
       cx="238"
       cy="276"
       r="12"
       id="circle25"
       style="stroke-width:18.3511;stroke-dasharray:none" />
    <circle
       cx="260"
       cy="168"
       r="12"
       id="circle26"
       style="stroke-width:18.3511;stroke-dasharray:none" />
  </g>
  <g
     fill="#4b92e8"
     id="g33"
     style="stroke-width:18.3511;stroke-dasharray:none"
     transform="matrix(0.18396868,0,0,0.18676384,58.815784,53.977893)">
    <circle
       cx="392"
       cy="42"
       r="12"
       id="circle27"
       style="stroke-width:18.3511;stroke-dasharray:none" />
    <circle
       cx="395"
       cy="82"
       r="12"
       id="circle28"
       style="stroke-width:18.3511;stroke-dasharray:none" />
    <circle
       cx="392"
       cy="120"
       r="12"
       id="circle29"
       style="stroke-width:18.3511;stroke-dasharray:none" />
    <circle
       cx="390"
       cy="162"
       r="12"
       id="circle30"
       style="stroke-width:18.3511;stroke-dasharray:none" />
    <circle
       cx="418"
       cy="148"
       r="12"
       id="circle31"
       style="stroke-width:18.3511;stroke-dasharray:none" />
    <circle
       cx="412"
       cy="190"
       r="12"
       id="circle32"
       style="stroke-width:18.3511;stroke-dasharray:none" />
    <circle
       cx="405"
       cy="230"
       r="12"
       id="circle33"
       style="stroke-width:18.3511;stroke-dasharray:none" />
  </g>
  <path
     d="m 26.696665,122.34787 c -3.611701,0 -4.268373,-1.99901 -4.268373,-5.99702 V 86.032571 c 0,-2.665343 -1.313346,-3.331679 -3.283365,-3.331679 1.970019,0 3.283365,-0.666335 3.283365,-3.331679 V 49.384104 c 0,-3.998014 0.656672,-5.997022 4.268373,-5.997022"
     class="brace"
     id="path34"
     style="stroke-width:3.40156;stroke-dasharray:none" />
  <rect
     x="-122.34787"
     y="33.920067"
     width="19.656904"
     height="5.5817194"
     fill="#00366f"
     id="rect34"
     style="stroke-width:3.40156;stroke-dasharray:none"
     transform="rotate(-90)" />
  <rect
     x="-102.69096"
     y="33.920067"
     width="19.656904"
     height="5.5817194"
     fill="#1266c3"
     id="rect35"
     style="stroke-width:3.40156;stroke-dasharray:none"
     transform="rotate(-90)" />
  <rect
     x="-83.034058"
     y="33.920067"
     width="19.656904"
     height="5.5817194"
     fill="#4b92e8"
     id="rect36"
     style="stroke-width:3.40156;stroke-dasharray:none"
     transform="rotate(-90)" />
  <rect
     x="-63.377155"
     y="33.920067"
     width="19.990072"
     height="5.5817194"
     fill="#8fc2fb"
     id="rect37"
     style="stroke-width:3.40156;stroke-dasharray:none"
     transform="rotate(-90)" />
  <line
     x1="33.920067"
     y1="102.69096"
     x2="39.501785"
     y2="102.69096"
     class="legendBorder"
     id="line37"
     style="stroke-width:3.40156;stroke-dasharray:none" />
  <line
     x1="33.920067"
     y1="83.034058"
     x2="39.501785"
     y2="83.034058"
     class="legendBorder"
     id="line38"
     style="stroke-width:3.40156;stroke-dasharray:none" />
  <line
     x1="33.920067"
     y1="63.377155"
     x2="39.501785"
     y2="63.377155"
     class="legendBorder"
     id="line39"
     style="stroke-width:3.40156;stroke-dasharray:none" />
  <text
     x="82.81839"
     y="141.0099"
     text-anchor="middle"
     font-family="'Avenir Next', 'Helvetica Neue', Arial, sans-serif"
     font-size="20.0159px"
     font-weight="800"
     letter-spacing="-6"
     id="text60"
     style="stroke-width:3.40156;stroke-dasharray:none"
     transform="scale(0.99272276,1.0073306)"><tspan
       style="fill:#1f5fd0;fill-opacity:1;stroke:none;stroke-width:3.40156;stroke-dasharray:none;stroke-opacity:1"
       id="tspan42">Batch</tspan><tspan
       style="fill:#082653;fill-opacity:1;stroke-width:3.40156;stroke-dasharray:none"
       id="tspan43">Regression</tspan></text>
  <path
     d="m 82.327086,1.7132491 c 3.063799,0 5.321335,1.195663 7.901377,2.732943 L 158.76081,46.635986 c 2.58005,1.537283 4.19257,4.441036 4.19257,7.686403 v 83.354741 c 0,3.24537 -1.61252,6.14912 -4.19257,7.6864 l -68.532347,42.1898 c -2.580042,1.53728 -4.837578,2.73295 -7.901377,2.73295 -3.0638,0 -5.321336,-1.19567 -7.901377,-2.73295 L 5.893362,145.36353 C 3.313311,143.82625 1.700785,140.9225 1.700785,137.67713 V 54.322387 c 0,-3.245368 1.612526,-6.14912 4.192577,-7.6864 L 74.425709,4.4461921 c 2.580041,-1.53728 4.837577,-2.732943 7.901377,-2.732943 z"
     fill="none"
     stroke="url(#borderGrad)"
     stroke-width="20"
     stroke-linejoin="round"
     id="path1"
     style="fill:#ffffff;fill-opacity:1;stroke:#1f5fd0;stroke-width:3.40157;stroke-dasharray:none;stroke-opacity:1" />
  <polygon
     points="470,65 470,170 0,320 0,250 "
     class="band"
     id="polygon4"
     style="stroke-width:5.39488"
     transform="matrix(0.18396868,0,0,0.18676383,58.815784,53.977895)" />
  <line
     x1="58.815784"
     y1="107.39235"
     x2="145.28107"
     y2="74.895447"
     class="regline"
     id="line5" />
  <ellipse
     cx="69.48597"
     cy="84.79393"
     id="circle5"
     style="fill:#00366f;stroke-width:1"
     rx="2.2076242"
     ry="2.2411659" />
  <ellipse
     cx="69.853905"
     cy="91.330658"
     id="circle6"
     style="fill:#00366f;stroke-width:1"
     rx="2.2076242"
     ry="2.2411659" />
  <ellipse
     cx="69.853905"
     cy="96.560051"
     id="circle7"
     style="fill:#00366f;stroke-width:1"
     rx="2.2076242"
     ry="2.2411659" />
  <ellipse
     cx="73.533279"
     cy="95.999756"
     id="circle8"
     style="fill:#00366f;stroke-width:1"
     rx="2.2076242"
     ry="2.2411659" />
  <ellipse
     cx="75.372963"
     cy="101.60267"
     id="circle9"
     style="fill:#00366f;stroke-width:1"
     rx="2.2076242"
     ry="2.2411659" />
  <ellipse
     cx="69.302002"
     cy="107.39235"
     id="circle10"
     style="fill:#00366f;stroke-width:1"
     rx="2.2076242"
     ry="2.2411659" />
  <ellipse
     cx="74.085182"
     cy="105.89824"
     id="circle11"
     style="fill:#00366f;stroke-width:1"
     rx="2.2076242"
     ry="2.2411659" />
  <ellipse
     cx="102.23239"
     cy="74.521919"
     id="circle12"
     style="fill:#1266c3;stroke-width:1"
     rx="2.2076242"
     ry="2.2411659" />
  <ellipse
     cx="99.288895"
     cy="82.365997"
     id="circle34"
     style="fill:#1266c3;stroke-width:1"
     rx="2.2076242"
     ry="2.2411659" />
  <ellipse
     cx="102.60033"
     cy="89.089493"
     id="circle35"
     style="fill:#1266c3;stroke-width:1"
     rx="2.2076242"
     ry="2.2411659" />
  <ellipse
     cx="104.07208"
     cy="96.186523"
     id="circle36"
     style="fill:#1266c3;stroke-width:1"
     rx="2.2076242"
     ry="2.2411659" />
  <ellipse
     cx="99.288895"
     cy="98.801216"
     id="circle37"
     style="fill:#1266c3;stroke-width:1"
     rx="2.2076242"
     ry="2.2411659" />
  <ellipse
     cx="102.60033"
     cy="105.52471"
     id="circle38"
     style="fill:#1266c3;stroke-width:1"
     rx="2.2076242"
     ry="2.2411659" />
  <ellipse
     cx="106.64764"
     cy="85.354218"
     id="circle39"
     style="fill:#1266c3;stroke-width:1"
     rx="2.2076242"
     ry="2.2411659" />
  <ellipse
     cx="130.9315"
     cy="61.821976"
     id="circle40"
     style="fill:#4b92e8;stroke-width:1"
     rx="2.2076242"
     ry="2.2411659" />
  <ellipse
     cx="131.48341"
     cy="69.292526"
     id="circle41"
     style="fill:#4b92e8;stroke-width:1"
     rx="2.2076242"
     ry="2.2411659" />
  <ellipse
     cx="130.9315"
     cy="76.389557"
     id="circle42"
     style="fill:#4b92e8;stroke-width:1"
     rx="2.2076242"
     ry="2.2411659" />
  <ellipse
     cx="130.56357"
     cy="84.233635"
     id="circle43"
     style="fill:#4b92e8;stroke-width:1"
     rx="2.2076242"
     ry="2.2411659" />
  <ellipse
     cx="135.71469"
     cy="81.618942"
     id="circle44"
     style="fill:#4b92e8;stroke-width:1"
     rx="2.2076242"
     ry="2.2411659" />
  <ellipse
     cx="134.61089"
     cy="89.46302"
     id="circle45"
     style="fill:#4b92e8;stroke-width:1"
     rx="2.2076242"
     ry="2.2411659" />
  <ellipse
     cx="133.3231"
     cy="96.933578"
     id="circle46"
     style="fill:#4b92e8;stroke-width:1"
     rx="2.2076242"
     ry="2.2411659" />
  <path
     d="m 26.696665,122.34788 c -3.611701,0 -4.268373,-1.99901 -4.268373,-5.99702 V 86.032581 c 0,-2.665343 -1.313346,-3.331679 -3.283365,-3.331679 1.970019,0 3.283365,-0.666335 3.283365,-3.331679 V 49.384114 c 0,-3.998014 0.656672,-5.997022 4.268373,-5.997022"
     class="brace"
     id="path47"
     style="stroke-width:2.26771654;stroke-dasharray:none" />
  <rect
     x="-122.34788"
     y="33.920067"
     width="19.656904"
     height="5.5817194"
     fill="#00366f"
     id="rect47"
     style="stroke-width:1"
     transform="rotate(-90)" />
  <rect
     x="-102.69097"
     y="33.920067"
     width="19.656904"
     height="5.5817194"
     fill="#1266c3"
     id="rect48"
     style="stroke-width:1"
     transform="rotate(-90)" />
  <rect
     x="-83.034073"
     y="33.920067"
     width="19.656904"
     height="5.5817194"
     fill="#4b92e8"
     id="rect49"
     style="stroke-width:1"
     transform="rotate(-90)" />
  <rect
     x="-63.377167"
     y="33.920067"
     width="19.990072"
     height="5.5817194"
     fill="#8fc2fb"
     id="rect50"
     style="stroke-width:1"
     transform="rotate(-90)" />
  <line
     x1="33.920067"
     y1="102.69097"
     x2="39.501785"
     y2="102.69097"
     class="legendBorder"
     id="line50" />
  <line
     x1="33.920067"
     y1="83.034073"
     x2="39.501785"
     y2="83.034073"
     class="legendBorder"
     id="line51" />
  <line
     x1="33.920067"
     y1="63.377167"
     x2="39.501785"
     y2="63.377167"
     class="legendBorder"
     id="line52" />
  <text
     x="82.817917"
     y="141.00992"
     text-anchor="middle"
     font-family="'Avenir Next', 'Helvetica Neue', Arial, sans-serif"
     font-size="18.2543px"
     font-weight="800"
     letter-spacing="-6"
     id="text53"
     style="font-size:17.3334px;letter-spacing:0px;stroke-width:1"
     transform="scale(0.99272275,1.0073306)"><tspan
       style="font-weight:bold;font-size:17.3334px;letter-spacing:0px;fill:#1f5fd0;fill-opacity:1;stroke:none;stroke-width:1;stroke-opacity:1"
       id="tspan52">Batch</tspan><tspan
       style="font-weight:bold;font-size:17.3334px;letter-spacing:0px;fill:#082653;fill-opacity:1;stroke-width:1"
       id="tspan53">Regression</tspan></text>
</svg>
