<?xml version="1.0" encoding="UTF-8" standalone="no"?>
<svg
   width="101.88004"
   height="26.686916"
   viewBox="1 1 118.23156 30.970109"
   role="img"
   aria-labelledby="title desc"
   version="1.1"
   id="svg54"
   sodipodi:docname="header.svg"
   xml:space="preserve"
   inkscape:version="1.4.3 (0d15f75, 2025-12-25)"
   inkscape:export-filename="header.png"
   inkscape:export-xdpi="400"
   inkscape:export-ydpi="400"
   xmlns:inkscape="http://www.inkscape.org/namespaces/inkscape"
   xmlns:sodipodi="http://sodipodi.sourceforge.net/DTD/sodipodi-0.dtd"
   xmlns:xlink="http://www.w3.org/1999/xlink"
   xmlns="http://www.w3.org/2000/svg"
   xmlns:svg="http://www.w3.org/2000/svg"
   xmlns:rdf="http://www.w3.org/1999/02/22-rdf-syntax-ns#"
   xmlns:cc="http://creativecommons.org/ns#"
   xmlns:dc="http://purl.org/dc/elements/1.1/"><sodipodi:namedview
     id="namedview54"
     pagecolor="#ffffff"
     bordercolor="#666666"
     borderopacity="1.0"
     inkscape:showpageshadow="2"
     inkscape:pageopacity="0.0"
     inkscape:pagecheckerboard="0"
     inkscape:deskcolor="#d1d1d1"
     inkscape:zoom="3.6203868"
     inkscape:cx="149.70776"
     inkscape:cy="-42.813105"
     inkscape:window-width="3008"
     inkscape:window-height="1555"
     inkscape:window-x="1512"
     inkscape:window-y="25"
     inkscape:window-maximized="0"
     inkscape:current-layer="svg54" /><title
     id="title">GenomicDataStream R package logo</title><desc
     id="desc">Hexagonal R package style logo for GenomicDataStream with an R mark, DNA helix transforming into streaming data, binary digits, and wave motifs.</desc><defs
     id="defs16"><inkscape:path-effect
       effect="bspline"
       id="path-effect65"
       is_visible="true"
       lpeversion="1.3"
       weight="33.333333"
       steps="2"
       helper_size="0"
       apply_no_weight="true"
       apply_with_weight="true"
       only_selected="false"
       uniform="false" /><linearGradient
       id="borderGrad"
       x1="110"
       y1="1040"
       x2="1090"
       y2="160"
       gradientUnits="userSpaceOnUse"
       gradientTransform="matrix(0.98258823,0,0,1.024911,-88.258796,-39.19573)"><stop
         offset="0"
         stop-color="#0B3C88"
         id="stop1" /><stop
         offset="0.55"
         stop-color="#1269C7"
         id="stop2" /><stop
         offset="1"
         stop-color="#20A6A6"
         id="stop3" /></linearGradient><linearGradient
       id="blueGrad"
       x1="136.27364"
       y1="64.269737"
       x2="295.77435"
       y2="223.77045"
       gradientTransform="scale(0.94817985,1.0546522)"
       gradientUnits="userSpaceOnUse"><stop
         offset="0"
         stop-color="#0B2F6B"
         id="stop4" /><stop
         offset="1"
         stop-color="#2677D8"
         id="stop5" /></linearGradient><linearGradient
       id="tealGrad"
       x1="70.05677"
       y1="686.9635"
       x2="547.52716"
       y2="686.9635"
       gradientTransform="scale(1.7163658,0.58262638)"
       gradientUnits="userSpaceOnUse"><stop
         offset="0"
         stop-color="#0A8C99"
         id="stop6" /><stop
         offset="1"
         stop-color="#2DC5C2"
         id="stop7" /></linearGradient><linearGradient
       id="streamGrad"
       x1="110"
       y1="540"
       x2="1040"
       y2="420"
       gradientUnits="userSpaceOnUse"><stop
         offset="0"
         stop-color="#0B3C88"
         id="stop8" /><stop
         offset="0.35"
         stop-color="#1668C4"
         id="stop9" /><stop
         offset="0.68"
         stop-color="#18A6A5"
         id="stop10" /><stop
         offset="1"
         stop-color="#2CC8C4"
         id="stop11" /></linearGradient><linearGradient
       id="wordGrad"
       x1="120"
       y1="795"
       x2="1080"
       y2="795"
       gradientUnits="userSpaceOnUse"
       gradientTransform="matrix(1.1767432,0,0,1.1767432,-203.92734,-150.40854)"><stop
         offset="0"
         stop-color="#0B2F6B"
         id="stop12" /><stop
         offset="0.38"
         stop-color="#0B3C88"
         id="stop13" /><stop
         offset="0.55"
         stop-color="#18A6A5"
         id="stop14" /><stop
         offset="0.75"
         stop-color="#1668C4"
         id="stop15" /><stop
         offset="1"
         stop-color="#0B2F6B"
         id="stop16" /></linearGradient><filter
       id="softShadow"
       x="0"
       y="0"
       width="1"
       height="1"><feDropShadow
         dx="0"
         dy="8"
         stdDeviation="8"
         flood-color="#0B2F6B"
         flood-opacity="0.10" /></filter><clipPath
       clipPathUnits="userSpaceOnUse"
       id="clipPath55"><path
         d="m 589.12,13.999999 c 21.61694,0 37.33835,8.199288 54.04235,18.448398 L 1060.7624,285.60141 c 19.6517,12.29894 29.4776,30.74733 29.4776,54.32029 v 500.15656 c 0,23.57296 -9.8259,42.02136 -29.4776,54.32029 L 643.16235,1147.5516 C 626.45835,1157.8007 610.73694,1166 589.12,1166 c -21.61694,0 -37.33835,-8.1993 -54.04235,-18.4484 L 117.47764,894.39855 C 97.82588,882.09962 87.999998,863.65122 87.999998,840.07826 V 339.9217 c 0,-23.57296 9.825882,-42.02135 29.477642,-54.32029 L 535.07765,32.448397 c 16.704,-10.24911 32.42541,-18.448398 54.04235,-18.448398 z"
         id="path55"
         style="stroke-width:1" /></clipPath><clipPath
       clipPathUnits="userSpaceOnUse"
       id="clipPath56"><path
         d="m 589.12,13.999999 c 21.61694,0 37.33835,8.199288 54.04235,18.448398 L 1060.7624,285.60141 c 19.6517,12.29894 29.4776,30.74733 29.4776,54.32029 v 500.15656 c 0,23.57296 -9.8259,42.02136 -29.4776,54.32029 L 643.16235,1147.5516 C 626.45835,1157.8007 610.73694,1166 589.12,1166 c -21.61694,0 -37.33835,-8.1993 -54.04235,-18.4484 L 117.47764,894.39855 C 97.82588,882.09962 87.999998,863.65122 87.999998,840.07826 V 339.9217 c 0,-23.57296 9.825882,-42.02135 29.477642,-54.32029 L 535.07765,32.448397 c 16.704,-10.24911 32.42541,-18.448398 54.04235,-18.448398 z"
         id="path56"
         style="stroke-width:1" /></clipPath><clipPath
       clipPathUnits="userSpaceOnUse"
       id="clipPath57"><path
         d="m 589.12,13.999999 c 21.61694,0 37.33835,8.199288 54.04235,18.448398 L 1060.7624,285.60141 c 19.6517,12.29894 29.4776,30.74733 29.4776,54.32029 v 500.15656 c 0,23.57296 -9.8259,42.02136 -29.4776,54.32029 L 643.16235,1147.5516 C 626.45835,1157.8007 610.73694,1166 589.12,1166 c -21.61694,0 -37.33835,-8.1993 -54.04235,-18.4484 L 117.47764,894.39855 C 97.82588,882.09962 87.999998,863.65122 87.999998,840.07826 V 339.9217 c 0,-23.57296 9.825882,-42.02135 29.477642,-54.32029 L 535.07765,32.448397 c 16.704,-10.24911 32.42541,-18.448398 54.04235,-18.448398 z"
         id="path57"
         style="stroke-width:1" /></clipPath><clipPath
       clipPathUnits="userSpaceOnUse"
       id="clipPath58"><path
         d="m 589.12,13.999999 c 21.61694,0 37.33835,8.199288 54.04235,18.448398 L 1060.7624,285.60141 c 19.6517,12.29894 29.4776,30.74733 29.4776,54.32029 v 500.15656 c 0,23.57296 -9.8259,42.02136 -29.4776,54.32029 L 643.16235,1147.5516 C 626.45835,1157.8007 610.73694,1166 589.12,1166 c -21.61694,0 -37.33835,-8.1993 -54.04235,-18.4484 L 117.47764,894.39855 C 97.82588,882.09962 87.999998,863.65122 87.999998,840.07826 V 339.9217 c 0,-23.57296 9.825882,-42.02135 29.477642,-54.32029 L 535.07765,32.448397 c 16.704,-10.24911 32.42541,-18.448398 54.04235,-18.448398 z"
         id="path58"
         style="stroke-width:1" /></clipPath><clipPath
       clipPathUnits="userSpaceOnUse"
       id="clipPath59"><path
         d="m 589.12,13.999999 c 21.61694,0 37.33835,8.199288 54.04235,18.448398 L 1060.7624,285.60141 c 19.6517,12.29894 29.4776,30.74733 29.4776,54.32029 v 500.15656 c 0,23.57296 -9.8259,42.02136 -29.4776,54.32029 L 643.16235,1147.5516 C 626.45835,1157.8007 610.73694,1166 589.12,1166 c -21.61694,0 -37.33835,-8.1993 -54.04235,-18.4484 L 117.47764,894.39855 C 97.82588,882.09962 87.999998,863.65122 87.999998,840.07826 V 339.9217 c 0,-23.57296 9.825882,-42.02135 29.477642,-54.32029 L 535.07765,32.448397 c 16.704,-10.24911 32.42541,-18.448398 54.04235,-18.448398 z"
         id="path59"
         style="stroke-width:1" /></clipPath><linearGradient
       id="fastGrad"
       x1="0"
       x2="1"
       y1="0"
       y2="0"><stop
         offset="0%"
         stop-color="#1f5fd0"
         id="stop1-2" /><stop
         offset="100%"
         stop-color="#092653"
         id="stop2-4" /></linearGradient><linearGradient
       id="lineFade"
       x1="0"
       x2="1"
       y1="0"
       y2="0"><stop
         offset="0%"
         stop-color="#1f5fd0"
         stop-opacity="0.95"
         id="stop3-8" /><stop
         offset="100%"
         stop-color="#8fb8e9"
         stop-opacity="0.35"
         id="stop4-3" /></linearGradient><linearGradient
       id="cellGrad"
       x1="0"
       x2="1"
       y1="0"
       y2="1"><stop
         offset="0%"
         stop-color="#eaf2ff"
         id="stop5-9" /><stop
         offset="100%"
         stop-color="#8bb5f0"
         id="stop6-0" /></linearGradient><filter
       id="softShadow-5"
       x="-0.018604651"
       y="-0.016128782"
       width="1.0372093"
       height="1.0322576"><feDropShadow
         dx="0"
         dy="8"
         stdDeviation="10"
         flood-color="#092653"
         flood-opacity="0.08" /></filter><linearGradient
       id="blueGrad-3"
       x1="0"
       x2="1"
       y1="0"
       y2="0"><stop
         offset="0"
         stop-color="#00366f"
         id="stop1-9" /><stop
         offset="0.55"
         stop-color="#1266c3"
         id="stop2-9" /><stop
         offset="1"
         stop-color="#78aef2"
         id="stop3-7" /></linearGradient><linearGradient
       id="textGrad"
       x1="0"
       x2="1"
       y1="0"
       y2="0"><stop
         offset="0"
         stop-color="#002d66"
         id="stop4-03" /><stop
         offset="0.48"
         stop-color="#0d5fb8"
         id="stop5-98" /><stop
         offset="1"
         stop-color="#6ea9ef"
         id="stop6-6" /></linearGradient><linearGradient
       id="rGrad"
       x1="0"
       x2="1"
       y1="0"
       y2="1"><stop
         offset="0"
         stop-color="#2f80df"
         id="stop7-5" /><stop
         offset="1"
         stop-color="#0050a8"
         id="stop8-7" /></linearGradient><filter
       id="softShadow-6"
       x="-0.012820513"
       y="-0.010638134"
       width="1.025641"
       height="1.0212764"><feDropShadow
         dx="0"
         dy="5"
         stdDeviation="5"
         flood-color="#0d315f"
         flood-opacity="0.16" /></filter><style
       id="style8">
      .navy { stroke:#00366f; }
      .plot-axis { stroke:#b7c3d0; stroke-width:3; stroke-linecap:round; opacity:.55; }
      .dash { stroke:#767676; stroke-width:4; stroke-dasharray:16 16; stroke-linecap:round; opacity:.75; }
      .regline { stroke:#0a4f99; stroke-width:6; stroke-linecap:round; }
      .band { fill:#9ec4ef; opacity:.34; }
      .brace { fill:none; stroke:#06498d; stroke-width:4; stroke-linecap:round; stroke-linejoin:round; }
      .legendBorder { fill:none; stroke:#ffffff; stroke-width:4; }
    </style><linearGradient
       id="borderGrad-2"
       x1="110"
       y1="1040"
       x2="1090"
       y2="160"
       gradientUnits="userSpaceOnUse"><stop
         offset="0"
         stop-color="#0B3C88"
         id="stop1-3" /><stop
         offset="0.55"
         stop-color="#1269C7"
         id="stop2-6" /><stop
         offset="1"
         stop-color="#20A6A6"
         id="stop3-55" /></linearGradient><filter
       id="softShadow-2"
       x="-0.018604651"
       y="-0.016128782"
       width="1.0372093"
       height="1.0322576"><feDropShadow
         dx="0"
         dy="8"
         stdDeviation="10"
         flood-color="#092653"
         flood-opacity="0.08" /></filter><clipPath
       clipPathUnits="userSpaceOnUse"
       id="clipPath56-5"><path
         d="m 589.12,13.999999 c 21.61694,0 37.33835,8.199288 54.04235,18.448398 L 1060.7624,285.60141 c 19.6517,12.29894 29.4776,30.74733 29.4776,54.32029 v 500.15656 c 0,23.57296 -9.8259,42.02136 -29.4776,54.32029 L 643.16235,1147.5516 C 626.45835,1157.8007 610.73694,1166 589.12,1166 c -21.61694,0 -37.33835,-8.1993 -54.04235,-18.4484 L 117.47764,894.39855 C 97.82588,882.09962 87.999998,863.65122 87.999998,840.07826 V 339.9217 c 0,-23.57296 9.825882,-42.02135 29.477642,-54.32029 L 535.07765,32.448397 c 16.704,-10.24911 32.42541,-18.448398 54.04235,-18.448398 z"
         id="path56-7"
         style="stroke-width:1" /></clipPath><clipPath
       clipPathUnits="userSpaceOnUse"
       id="clipPath56-5-0"><path
         d="m 589.12,13.999999 c 21.61694,0 37.33835,8.199288 54.04235,18.448398 L 1060.7624,285.60141 c 19.6517,12.29894 29.4776,30.74733 29.4776,54.32029 v 500.15656 c 0,23.57296 -9.8259,42.02136 -29.4776,54.32029 L 643.16235,1147.5516 C 626.45835,1157.8007 610.73694,1166 589.12,1166 c -21.61694,0 -37.33835,-8.1993 -54.04235,-18.4484 L 117.47764,894.39855 C 97.82588,882.09962 87.999998,863.65122 87.999998,840.07826 V 339.9217 c 0,-23.57296 9.825882,-42.02135 29.477642,-54.32029 L 535.07765,32.448397 c 16.704,-10.24911 32.42541,-18.448398 54.04235,-18.448398 z"
         id="path56-7-2"
         style="stroke-width:1" /></clipPath><clipPath
       clipPathUnits="userSpaceOnUse"
       id="clipPath56-5-1"><path
         d="m 589.12,13.999999 c 21.61694,0 37.33835,8.199288 54.04235,18.448398 L 1060.7624,285.60141 c 19.6517,12.29894 29.4776,30.74733 29.4776,54.32029 v 500.15656 c 0,23.57296 -9.8259,42.02136 -29.4776,54.32029 L 643.16235,1147.5516 C 626.45835,1157.8007 610.73694,1166 589.12,1166 c -21.61694,0 -37.33835,-8.1993 -54.04235,-18.4484 L 117.47764,894.39855 C 97.82588,882.09962 87.999998,863.65122 87.999998,840.07826 V 339.9217 c 0,-23.57296 9.825882,-42.02135 29.477642,-54.32029 L 535.07765,32.448397 c 16.704,-10.24911 32.42541,-18.448398 54.04235,-18.448398 z"
         id="path56-7-8"
         style="stroke-width:1" /></clipPath><inkscape:path-effect
       effect="bspline"
       id="path-effect65-5"
       is_visible="true"
       lpeversion="1.3"
       weight="33.333333"
       steps="2"
       helper_size="0"
       apply_no_weight="true"
       apply_with_weight="true"
       only_selected="false"
       uniform="false" /><filter
       id="softShadow-52"
       x="0"
       y="0"
       width="1"
       height="1"><feDropShadow
         dx="0"
         dy="8"
         stdDeviation="8"
         flood-color="#0B2F6B"
         flood-opacity="0.10" /></filter><clipPath
       clipPathUnits="userSpaceOnUse"
       id="clipPath55-2"><path
         d="m 589.12,13.999999 c 21.61694,0 37.33835,8.199288 54.04235,18.448398 L 1060.7624,285.60141 c 19.6517,12.29894 29.4776,30.74733 29.4776,54.32029 v 500.15656 c 0,23.57296 -9.8259,42.02136 -29.4776,54.32029 L 643.16235,1147.5516 C 626.45835,1157.8007 610.73694,1166 589.12,1166 c -21.61694,0 -37.33835,-8.1993 -54.04235,-18.4484 L 117.47764,894.39855 C 97.82588,882.09962 87.999998,863.65122 87.999998,840.07826 V 339.9217 c 0,-23.57296 9.825882,-42.02135 29.477642,-54.32029 L 535.07765,32.448397 c 16.704,-10.24911 32.42541,-18.448398 54.04235,-18.448398 z"
         id="path55-7"
         style="stroke-width:1" /></clipPath><clipPath
       clipPathUnits="userSpaceOnUse"
       id="clipPath56-1"><path
         d="m 589.12,13.999999 c 21.61694,0 37.33835,8.199288 54.04235,18.448398 L 1060.7624,285.60141 c 19.6517,12.29894 29.4776,30.74733 29.4776,54.32029 v 500.15656 c 0,23.57296 -9.8259,42.02136 -29.4776,54.32029 L 643.16235,1147.5516 C 626.45835,1157.8007 610.73694,1166 589.12,1166 c -21.61694,0 -37.33835,-8.1993 -54.04235,-18.4484 L 117.47764,894.39855 C 97.82588,882.09962 87.999998,863.65122 87.999998,840.07826 V 339.9217 c 0,-23.57296 9.825882,-42.02135 29.477642,-54.32029 L 535.07765,32.448397 c 16.704,-10.24911 32.42541,-18.448398 54.04235,-18.448398 z"
         id="path56-5"
         style="stroke-width:1" /></clipPath><clipPath
       clipPathUnits="userSpaceOnUse"
       id="clipPath57-2"><path
         d="m 589.12,13.999999 c 21.61694,0 37.33835,8.199288 54.04235,18.448398 L 1060.7624,285.60141 c 19.6517,12.29894 29.4776,30.74733 29.4776,54.32029 v 500.15656 c 0,23.57296 -9.8259,42.02136 -29.4776,54.32029 L 643.16235,1147.5516 C 626.45835,1157.8007 610.73694,1166 589.12,1166 c -21.61694,0 -37.33835,-8.1993 -54.04235,-18.4484 L 117.47764,894.39855 C 97.82588,882.09962 87.999998,863.65122 87.999998,840.07826 V 339.9217 c 0,-23.57296 9.825882,-42.02135 29.477642,-54.32029 L 535.07765,32.448397 c 16.704,-10.24911 32.42541,-18.448398 54.04235,-18.448398 z"
         id="path57-1"
         style="stroke-width:1" /></clipPath><clipPath
       clipPathUnits="userSpaceOnUse"
       id="clipPath58-1"><path
         d="m 589.12,13.999999 c 21.61694,0 37.33835,8.199288 54.04235,18.448398 L 1060.7624,285.60141 c 19.6517,12.29894 29.4776,30.74733 29.4776,54.32029 v 500.15656 c 0,23.57296 -9.8259,42.02136 -29.4776,54.32029 L 643.16235,1147.5516 C 626.45835,1157.8007 610.73694,1166 589.12,1166 c -21.61694,0 -37.33835,-8.1993 -54.04235,-18.4484 L 117.47764,894.39855 C 97.82588,882.09962 87.999998,863.65122 87.999998,840.07826 V 339.9217 c 0,-23.57296 9.825882,-42.02135 29.477642,-54.32029 L 535.07765,32.448397 c 16.704,-10.24911 32.42541,-18.448398 54.04235,-18.448398 z"
         id="path58-0"
         style="stroke-width:1" /></clipPath><clipPath
       clipPathUnits="userSpaceOnUse"
       id="clipPath59-1"><path
         d="m 589.12,13.999999 c 21.61694,0 37.33835,8.199288 54.04235,18.448398 L 1060.7624,285.60141 c 19.6517,12.29894 29.4776,30.74733 29.4776,54.32029 v 500.15656 c 0,23.57296 -9.8259,42.02136 -29.4776,54.32029 L 643.16235,1147.5516 C 626.45835,1157.8007 610.73694,1166 589.12,1166 c -21.61694,0 -37.33835,-8.1993 -54.04235,-18.4484 L 117.47764,894.39855 C 97.82588,882.09962 87.999998,863.65122 87.999998,840.07826 V 339.9217 c 0,-23.57296 9.825882,-42.02135 29.477642,-54.32029 L 535.07765,32.448397 c 16.704,-10.24911 32.42541,-18.448398 54.04235,-18.448398 z"
         id="path59-8"
         style="stroke-width:1" /></clipPath><clipPath
       clipPathUnits="userSpaceOnUse"
       id="clipPath56-5-7"><path
         d="m 589.12,13.999999 c 21.61694,0 37.33835,8.199288 54.04235,18.448398 L 1060.7624,285.60141 c 19.6517,12.29894 29.4776,30.74733 29.4776,54.32029 v 500.15656 c 0,23.57296 -9.8259,42.02136 -29.4776,54.32029 L 643.16235,1147.5516 C 626.45835,1157.8007 610.73694,1166 589.12,1166 c -21.61694,0 -37.33835,-8.1993 -54.04235,-18.4484 L 117.47764,894.39855 C 97.82588,882.09962 87.999998,863.65122 87.999998,840.07826 V 339.9217 c 0,-23.57296 9.825882,-42.02135 29.477642,-54.32029 L 535.07765,32.448397 c 16.704,-10.24911 32.42541,-18.448398 54.04235,-18.448398 z"
         id="path56-7-6"
         style="stroke-width:1" /></clipPath><clipPath
       clipPathUnits="userSpaceOnUse"
       id="clipPath56-5-9"><path
         d="m 589.12,13.999999 c 21.61694,0 37.33835,8.199288 54.04235,18.448398 L 1060.7624,285.60141 c 19.6517,12.29894 29.4776,30.74733 29.4776,54.32029 v 500.15656 c 0,23.57296 -9.8259,42.02136 -29.4776,54.32029 L 643.16235,1147.5516 C 626.45835,1157.8007 610.73694,1166 589.12,1166 c -21.61694,0 -37.33835,-8.1993 -54.04235,-18.4484 L 117.47764,894.39855 C 97.82588,882.09962 87.999998,863.65122 87.999998,840.07826 V 339.9217 c 0,-23.57296 9.825882,-42.02135 29.477642,-54.32029 L 535.07765,32.448397 c 16.704,-10.24911 32.42541,-18.448398 54.04235,-18.448398 z"
         id="path56-7-4"
         style="stroke-width:1" /></clipPath><filter
       id="softShadow-60"
       x="-0.018604651"
       y="-0.016128782"
       width="1.0372093"
       height="1.0322576"><feDropShadow
         dx="0"
         dy="8"
         stdDeviation="10"
         flood-color="#092653"
         flood-opacity="0.08" /></filter><clipPath
       clipPathUnits="userSpaceOnUse"
       id="clipPath56-5-8"><path
         d="m 589.12,13.999999 c 21.61694,0 37.33835,8.199288 54.04235,18.448398 L 1060.7624,285.60141 c 19.6517,12.29894 29.4776,30.74733 29.4776,54.32029 v 500.15656 c 0,23.57296 -9.8259,42.02136 -29.4776,54.32029 L 643.16235,1147.5516 C 626.45835,1157.8007 610.73694,1166 589.12,1166 c -21.61694,0 -37.33835,-8.1993 -54.04235,-18.4484 L 117.47764,894.39855 C 97.82588,882.09962 87.999998,863.65122 87.999998,840.07826 V 339.9217 c 0,-23.57296 9.825882,-42.02135 29.477642,-54.32029 L 535.07765,32.448397 c 16.704,-10.24911 32.42541,-18.448398 54.04235,-18.448398 z"
         id="path56-7-5"
         style="stroke-width:1" /></clipPath><linearGradient
       inkscape:collect="always"
       xlink:href="#wordGrad"
       id="linearGradient9-9"
       gradientUnits="userSpaceOnUse"
       gradientTransform="matrix(1.1767432,0,0,1.1767432,-433.9561,-607.95402)"
       x1="120"
       y1="795"
       x2="1080"
       y2="795" /><linearGradient
       id="linearGradient17"
       inkscape:collect="always"><stop
         style="stop-color:#0b2f6b;stop-opacity:1;"
         offset="0"
         id="stop10-7" /><stop
         style="stop-color:#1668c4;stop-opacity:1;"
         offset="0.51928723"
         id="stop11-1" /><stop
         style="stop-color:#18a6a5;stop-opacity:1;"
         offset="1"
         id="stop17" /></linearGradient><filter
       id="softShadow-26"
       x="-0.018604651"
       y="-0.016128782"
       width="1.0372093"
       height="1.0322576"><feDropShadow
         dx="0"
         dy="8"
         stdDeviation="10"
         flood-color="#092653"
         flood-opacity="0.08" /></filter><clipPath
       clipPathUnits="userSpaceOnUse"
       id="clipPath56-5-88"><path
         d="m 589.12,13.999999 c 21.61694,0 37.33835,8.199288 54.04235,18.448398 L 1060.7624,285.60141 c 19.6517,12.29894 29.4776,30.74733 29.4776,54.32029 v 500.15656 c 0,23.57296 -9.8259,42.02136 -29.4776,54.32029 L 643.16235,1147.5516 C 626.45835,1157.8007 610.73694,1166 589.12,1166 c -21.61694,0 -37.33835,-8.1993 -54.04235,-18.4484 L 117.47764,894.39855 C 97.82588,882.09962 87.999998,863.65122 87.999998,840.07826 V 339.9217 c 0,-23.57296 9.825882,-42.02135 29.477642,-54.32029 L 535.07765,32.448397 c 16.704,-10.24911 32.42541,-18.448398 54.04235,-18.448398 z"
         id="path56-7-3"
         style="stroke-width:1" /></clipPath><inkscape:path-effect
       effect="bspline"
       id="path-effect65-3"
       is_visible="true"
       lpeversion="1.3"
       weight="33.333333"
       steps="2"
       helper_size="0"
       apply_no_weight="true"
       apply_with_weight="true"
       only_selected="false"
       uniform="false" /><filter
       id="softShadow-66"
       x="0"
       y="0"
       width="1"
       height="1"><feDropShadow
         dx="0"
         dy="8"
         stdDeviation="8"
         flood-color="#0B2F6B"
         flood-opacity="0.10" /></filter><clipPath
       clipPathUnits="userSpaceOnUse"
       id="clipPath55-7"><path
         d="m 589.12,13.999999 c 21.61694,0 37.33835,8.199288 54.04235,18.448398 L 1060.7624,285.60141 c 19.6517,12.29894 29.4776,30.74733 29.4776,54.32029 v 500.15656 c 0,23.57296 -9.8259,42.02136 -29.4776,54.32029 L 643.16235,1147.5516 C 626.45835,1157.8007 610.73694,1166 589.12,1166 c -21.61694,0 -37.33835,-8.1993 -54.04235,-18.4484 L 117.47764,894.39855 C 97.82588,882.09962 87.999998,863.65122 87.999998,840.07826 V 339.9217 c 0,-23.57296 9.825882,-42.02135 29.477642,-54.32029 L 535.07765,32.448397 c 16.704,-10.24911 32.42541,-18.448398 54.04235,-18.448398 z"
         id="path55-8"
         style="stroke-width:1" /></clipPath><clipPath
       clipPathUnits="userSpaceOnUse"
       id="clipPath56-4"><path
         d="m 589.12,13.999999 c 21.61694,0 37.33835,8.199288 54.04235,18.448398 L 1060.7624,285.60141 c 19.6517,12.29894 29.4776,30.74733 29.4776,54.32029 v 500.15656 c 0,23.57296 -9.8259,42.02136 -29.4776,54.32029 L 643.16235,1147.5516 C 626.45835,1157.8007 610.73694,1166 589.12,1166 c -21.61694,0 -37.33835,-8.1993 -54.04235,-18.4484 L 117.47764,894.39855 C 97.82588,882.09962 87.999998,863.65122 87.999998,840.07826 V 339.9217 c 0,-23.57296 9.825882,-42.02135 29.477642,-54.32029 L 535.07765,32.448397 c 16.704,-10.24911 32.42541,-18.448398 54.04235,-18.448398 z"
         id="path56-1"
         style="stroke-width:1" /></clipPath><clipPath
       clipPathUnits="userSpaceOnUse"
       id="clipPath57-7"><path
         d="m 589.12,13.999999 c 21.61694,0 37.33835,8.199288 54.04235,18.448398 L 1060.7624,285.60141 c 19.6517,12.29894 29.4776,30.74733 29.4776,54.32029 v 500.15656 c 0,23.57296 -9.8259,42.02136 -29.4776,54.32029 L 643.16235,1147.5516 C 626.45835,1157.8007 610.73694,1166 589.12,1166 c -21.61694,0 -37.33835,-8.1993 -54.04235,-18.4484 L 117.47764,894.39855 C 97.82588,882.09962 87.999998,863.65122 87.999998,840.07826 V 339.9217 c 0,-23.57296 9.825882,-42.02135 29.477642,-54.32029 L 535.07765,32.448397 c 16.704,-10.24911 32.42541,-18.448398 54.04235,-18.448398 z"
         id="path57-18"
         style="stroke-width:1" /></clipPath><clipPath
       clipPathUnits="userSpaceOnUse"
       id="clipPath58-7"><path
         d="m 589.12,13.999999 c 21.61694,0 37.33835,8.199288 54.04235,18.448398 L 1060.7624,285.60141 c 19.6517,12.29894 29.4776,30.74733 29.4776,54.32029 v 500.15656 c 0,23.57296 -9.8259,42.02136 -29.4776,54.32029 L 643.16235,1147.5516 C 626.45835,1157.8007 610.73694,1166 589.12,1166 c -21.61694,0 -37.33835,-8.1993 -54.04235,-18.4484 L 117.47764,894.39855 C 97.82588,882.09962 87.999998,863.65122 87.999998,840.07826 V 339.9217 c 0,-23.57296 9.825882,-42.02135 29.477642,-54.32029 L 535.07765,32.448397 c 16.704,-10.24911 32.42541,-18.448398 54.04235,-18.448398 z"
         id="path58-8"
         style="stroke-width:1" /></clipPath><clipPath
       clipPathUnits="userSpaceOnUse"
       id="clipPath59-7"><path
         d="m 589.12,13.999999 c 21.61694,0 37.33835,8.199288 54.04235,18.448398 L 1060.7624,285.60141 c 19.6517,12.29894 29.4776,30.74733 29.4776,54.32029 v 500.15656 c 0,23.57296 -9.8259,42.02136 -29.4776,54.32029 L 643.16235,1147.5516 C 626.45835,1157.8007 610.73694,1166 589.12,1166 c -21.61694,0 -37.33835,-8.1993 -54.04235,-18.4484 L 117.47764,894.39855 C 97.82588,882.09962 87.999998,863.65122 87.999998,840.07826 V 339.9217 c 0,-23.57296 9.825882,-42.02135 29.477642,-54.32029 L 535.07765,32.448397 c 16.704,-10.24911 32.42541,-18.448398 54.04235,-18.448398 z"
         id="path59-7"
         style="stroke-width:1" /></clipPath><clipPath
       clipPathUnits="userSpaceOnUse"
       id="clipPath56-5-4"><path
         d="m 589.12,13.999999 c 21.61694,0 37.33835,8.199288 54.04235,18.448398 L 1060.7624,285.60141 c 19.6517,12.29894 29.4776,30.74733 29.4776,54.32029 v 500.15656 c 0,23.57296 -9.8259,42.02136 -29.4776,54.32029 L 643.16235,1147.5516 C 626.45835,1157.8007 610.73694,1166 589.12,1166 c -21.61694,0 -37.33835,-8.1993 -54.04235,-18.4484 L 117.47764,894.39855 C 97.82588,882.09962 87.999998,863.65122 87.999998,840.07826 V 339.9217 c 0,-23.57296 9.825882,-42.02135 29.477642,-54.32029 L 535.07765,32.448397 c 16.704,-10.24911 32.42541,-18.448398 54.04235,-18.448398 z"
         id="path56-7-49"
         style="stroke-width:1" /></clipPath><filter
       id="softShadow-22"
       x="-0.018604651"
       y="-0.016128782"
       width="1.0372093"
       height="1.0322576"><feDropShadow
         dx="0"
         dy="8"
         stdDeviation="10"
         flood-color="#092653"
         flood-opacity="0.08" /></filter><filter
       id="softShadow-0"
       x="-0.012820513"
       y="-0.010638134"
       width="1.025641"
       height="1.0212764"><feDropShadow
         dx="0"
         dy="5"
         stdDeviation="5"
         flood-color="#0d315f"
         flood-opacity="0.16" /></filter><style
       id="style8-9">
      .navy { stroke:#00366f; }
      .plot-axis { stroke:#b7c3d0; stroke-width:3; stroke-linecap:round; opacity:.55; }
      .dash { stroke:#767676; stroke-width:4; stroke-dasharray:16 16; stroke-linecap:round; opacity:.75; }
      .regline { stroke:#0a4f99; stroke-width:6; stroke-linecap:round; }
      .band { fill:#9ec4ef; opacity:.34; }
      .brace { fill:none; stroke:#06498d; stroke-width:4; stroke-linecap:round; stroke-linejoin:round; }
      .legendBorder { fill:none; stroke:#ffffff; stroke-width:4; }
    </style><inkscape:path-effect
       effect="bspline"
       id="path-effect65-4"
       is_visible="true"
       lpeversion="1.3"
       weight="33.333333"
       steps="2"
       helper_size="0"
       apply_no_weight="true"
       apply_with_weight="true"
       only_selected="false"
       uniform="false" /><filter
       id="softShadow-8"
       x="0"
       y="0"
       width="1"
       height="1"><feDropShadow
         dx="0"
         dy="8"
         stdDeviation="8"
         flood-color="#0B2F6B"
         flood-opacity="0.10" /></filter><clipPath
       clipPathUnits="userSpaceOnUse"
       id="clipPath55-20"><path
         d="m 589.12,13.999999 c 21.61694,0 37.33835,8.199288 54.04235,18.448398 L 1060.7624,285.60141 c 19.6517,12.29894 29.4776,30.74733 29.4776,54.32029 v 500.15656 c 0,23.57296 -9.8259,42.02136 -29.4776,54.32029 L 643.16235,1147.5516 C 626.45835,1157.8007 610.73694,1166 589.12,1166 c -21.61694,0 -37.33835,-8.1993 -54.04235,-18.4484 L 117.47764,894.39855 C 97.82588,882.09962 87.999998,863.65122 87.999998,840.07826 V 339.9217 c 0,-23.57296 9.825882,-42.02135 29.477642,-54.32029 L 535.07765,32.448397 c 16.704,-10.24911 32.42541,-18.448398 54.04235,-18.448398 z"
         id="path55-74"
         style="stroke-width:1" /></clipPath><clipPath
       clipPathUnits="userSpaceOnUse"
       id="clipPath56-8"><path
         d="m 589.12,13.999999 c 21.61694,0 37.33835,8.199288 54.04235,18.448398 L 1060.7624,285.60141 c 19.6517,12.29894 29.4776,30.74733 29.4776,54.32029 v 500.15656 c 0,23.57296 -9.8259,42.02136 -29.4776,54.32029 L 643.16235,1147.5516 C 626.45835,1157.8007 610.73694,1166 589.12,1166 c -21.61694,0 -37.33835,-8.1993 -54.04235,-18.4484 L 117.47764,894.39855 C 97.82588,882.09962 87.999998,863.65122 87.999998,840.07826 V 339.9217 c 0,-23.57296 9.825882,-42.02135 29.477642,-54.32029 L 535.07765,32.448397 c 16.704,-10.24911 32.42541,-18.448398 54.04235,-18.448398 z"
         id="path56-58"
         style="stroke-width:1" /></clipPath><clipPath
       clipPathUnits="userSpaceOnUse"
       id="clipPath57-3"><path
         d="m 589.12,13.999999 c 21.61694,0 37.33835,8.199288 54.04235,18.448398 L 1060.7624,285.60141 c 19.6517,12.29894 29.4776,30.74733 29.4776,54.32029 v 500.15656 c 0,23.57296 -9.8259,42.02136 -29.4776,54.32029 L 643.16235,1147.5516 C 626.45835,1157.8007 610.73694,1166 589.12,1166 c -21.61694,0 -37.33835,-8.1993 -54.04235,-18.4484 L 117.47764,894.39855 C 97.82588,882.09962 87.999998,863.65122 87.999998,840.07826 V 339.9217 c 0,-23.57296 9.825882,-42.02135 29.477642,-54.32029 L 535.07765,32.448397 c 16.704,-10.24911 32.42541,-18.448398 54.04235,-18.448398 z"
         id="path57-0"
         style="stroke-width:1" /></clipPath><clipPath
       clipPathUnits="userSpaceOnUse"
       id="clipPath58-6"><path
         d="m 589.12,13.999999 c 21.61694,0 37.33835,8.199288 54.04235,18.448398 L 1060.7624,285.60141 c 19.6517,12.29894 29.4776,30.74733 29.4776,54.32029 v 500.15656 c 0,23.57296 -9.8259,42.02136 -29.4776,54.32029 L 643.16235,1147.5516 C 626.45835,1157.8007 610.73694,1166 589.12,1166 c -21.61694,0 -37.33835,-8.1993 -54.04235,-18.4484 L 117.47764,894.39855 C 97.82588,882.09962 87.999998,863.65122 87.999998,840.07826 V 339.9217 c 0,-23.57296 9.825882,-42.02135 29.477642,-54.32029 L 535.07765,32.448397 c 16.704,-10.24911 32.42541,-18.448398 54.04235,-18.448398 z"
         id="path58-2"
         style="stroke-width:1" /></clipPath><clipPath
       clipPathUnits="userSpaceOnUse"
       id="clipPath59-2"><path
         d="m 589.12,13.999999 c 21.61694,0 37.33835,8.199288 54.04235,18.448398 L 1060.7624,285.60141 c 19.6517,12.29894 29.4776,30.74733 29.4776,54.32029 v 500.15656 c 0,23.57296 -9.8259,42.02136 -29.4776,54.32029 L 643.16235,1147.5516 C 626.45835,1157.8007 610.73694,1166 589.12,1166 c -21.61694,0 -37.33835,-8.1993 -54.04235,-18.4484 L 117.47764,894.39855 C 97.82588,882.09962 87.999998,863.65122 87.999998,840.07826 V 339.9217 c 0,-23.57296 9.825882,-42.02135 29.477642,-54.32029 L 535.07765,32.448397 c 16.704,-10.24911 32.42541,-18.448398 54.04235,-18.448398 z"
         id="path59-5"
         style="stroke-width:1" /></clipPath><clipPath
       clipPathUnits="userSpaceOnUse"
       id="clipPath56-5-2"><path
         d="m 589.12,13.999999 c 21.61694,0 37.33835,8.199288 54.04235,18.448398 L 1060.7624,285.60141 c 19.6517,12.29894 29.4776,30.74733 29.4776,54.32029 v 500.15656 c 0,23.57296 -9.8259,42.02136 -29.4776,54.32029 L 643.16235,1147.5516 C 626.45835,1157.8007 610.73694,1166 589.12,1166 c -21.61694,0 -37.33835,-8.1993 -54.04235,-18.4484 L 117.47764,894.39855 C 97.82588,882.09962 87.999998,863.65122 87.999998,840.07826 V 339.9217 c 0,-23.57296 9.825882,-42.02135 29.477642,-54.32029 L 535.07765,32.448397 c 16.704,-10.24911 32.42541,-18.448398 54.04235,-18.448398 z"
         id="path56-7-27"
         style="stroke-width:1" /></clipPath><linearGradient
       inkscape:collect="always"
       xlink:href="#linearGradient17"
       id="linearGradient4"
       gradientUnits="userSpaceOnUse"
       gradientTransform="matrix(0.1641567,0,0,0.06583391,36.329162,-33.839752)"
       x1="501.12027"
       y1="207.81245"
       x2="501.1203"
       y2="808.93347" /></defs><!-- Background badge --><!-- R logo mark --><!-- DNA helix and streaming data --><!-- binary digits and data dots --><!-- Wordmark --><!-- Waves clipped inside badge --><metadata
     id="metadata59"><rdf:RDF><cc:Work
         rdf:about=""><dc:title>GenomicDataStream R package logo</dc:title></cc:Work></rdf:RDF></metadata><text
     xml:space="preserve"
     style="font-weight:bold;font-size:118.427px;line-height:1.25;font-family:Arial, Helvetica, sans-serif;-inkscape-font-specification:'Arial, Helvetica, sans-serif, Bold';letter-spacing:0px;stroke-width:0.999996"
     x="2078.2471"
     y="1095.8694"
     id="text20"
     transform="scale(0.99998041,1.0000196)"><tspan
       sodipodi:role="line"
       id="tspan20"
       x="2078.2471"
       y="1095.8694"
       style="stroke-width:0.999996" /></text><rect
     style="opacity:0.95;fill:url(#linearGradient4);fill-opacity:1;stroke:none;stroke-width:2.75151;stroke-linejoin:round;stroke-opacity:1"
     id="rect1"
     width="118.23156"
     height="30.970108"
     x="1"
     y="1" /></svg>
